<mxfile host="Electron" agent="Mozilla/5.0 (Windows NT 10.0; Win64; x64) AppleWebKit/537.36 (KHTML, like Gecko) draw.io/24.7.17 Chrome/128.0.6613.36 Electron/32.0.1 Safari/537.36" version="24.7.17">
  <diagram id="HjOBZ4xzr3KVY2r9VdnX" name="Page-2">
    <mxGraphModel dx="1973" dy="1497" grid="0" gridSize="10" guides="1" tooltips="1" connect="1" arrows="1" fold="1" page="0" pageScale="1" pageWidth="850" pageHeight="1100" math="0" shadow="0">
      <root>
        <mxCell id="0" />
        <mxCell id="1" parent="0" />
        <mxCell id="D1A6Ejf6f3UkuHJyZgIm-8" value="" style="edgeStyle=none;curved=1;rounded=0;orthogonalLoop=1;jettySize=auto;html=1;fontSize=12;startSize=8;endSize=8;" edge="1" parent="1" source="D1A6Ejf6f3UkuHJyZgIm-1" target="D1A6Ejf6f3UkuHJyZgIm-2">
          <mxGeometry relative="1" as="geometry" />
        </mxCell>
        <mxCell id="D1A6Ejf6f3UkuHJyZgIm-1" value="" style="rounded=0;whiteSpace=wrap;html=1;" vertex="1" parent="1">
          <mxGeometry x="-376" y="-603" width="120" height="60" as="geometry" />
        </mxCell>
        <mxCell id="D1A6Ejf6f3UkuHJyZgIm-10" value="" style="edgeStyle=none;curved=1;rounded=0;orthogonalLoop=1;jettySize=auto;html=1;fontSize=12;startSize=8;endSize=8;" edge="1" parent="1" source="D1A6Ejf6f3UkuHJyZgIm-2" target="D1A6Ejf6f3UkuHJyZgIm-4">
          <mxGeometry relative="1" as="geometry" />
        </mxCell>
        <mxCell id="D1A6Ejf6f3UkuHJyZgIm-2" value="ask for age" style="rounded=1;whiteSpace=wrap;html=1;" vertex="1" parent="1">
          <mxGeometry x="-376" y="-496" width="120" height="60" as="geometry" />
        </mxCell>
        <mxCell id="D1A6Ejf6f3UkuHJyZgIm-12" value="" style="edgeStyle=none;curved=1;rounded=0;orthogonalLoop=1;jettySize=auto;html=1;fontSize=12;startSize=8;endSize=8;" edge="1" parent="1" source="D1A6Ejf6f3UkuHJyZgIm-4" target="D1A6Ejf6f3UkuHJyZgIm-11">
          <mxGeometry relative="1" as="geometry" />
        </mxCell>
        <mxCell id="D1A6Ejf6f3UkuHJyZgIm-4" value="age" style="shape=parallelogram;perimeter=parallelogramPerimeter;whiteSpace=wrap;html=1;fixedSize=1;" vertex="1" parent="1">
          <mxGeometry x="-376" y="-403" width="120" height="60" as="geometry" />
        </mxCell>
        <mxCell id="D1A6Ejf6f3UkuHJyZgIm-16" value="" style="edgeStyle=none;curved=1;rounded=0;orthogonalLoop=1;jettySize=auto;html=1;fontSize=12;startSize=8;endSize=8;" edge="1" parent="1" source="D1A6Ejf6f3UkuHJyZgIm-11" target="D1A6Ejf6f3UkuHJyZgIm-15">
          <mxGeometry relative="1" as="geometry" />
        </mxCell>
        <mxCell id="D1A6Ejf6f3UkuHJyZgIm-42" value="no" style="edgeLabel;html=1;align=center;verticalAlign=middle;resizable=0;points=[];fontSize=12;" vertex="1" connectable="0" parent="D1A6Ejf6f3UkuHJyZgIm-16">
          <mxGeometry x="-0.1682" y="-1" relative="1" as="geometry">
            <mxPoint as="offset" />
          </mxGeometry>
        </mxCell>
        <mxCell id="D1A6Ejf6f3UkuHJyZgIm-11" value="if age&lt;div&gt;&amp;gt; 18&lt;/div&gt;" style="rhombus;whiteSpace=wrap;html=1;" vertex="1" parent="1">
          <mxGeometry x="-356" y="-277" width="80" height="80" as="geometry" />
        </mxCell>
        <mxCell id="D1A6Ejf6f3UkuHJyZgIm-18" value="" style="edgeStyle=none;curved=1;rounded=0;orthogonalLoop=1;jettySize=auto;html=1;fontSize=12;startSize=8;endSize=8;" edge="1" parent="1" source="D1A6Ejf6f3UkuHJyZgIm-15" target="D1A6Ejf6f3UkuHJyZgIm-17">
          <mxGeometry relative="1" as="geometry" />
        </mxCell>
        <mxCell id="D1A6Ejf6f3UkuHJyZgIm-19" value="" style="edgeStyle=none;curved=1;rounded=0;orthogonalLoop=1;jettySize=auto;html=1;fontSize=12;startSize=8;endSize=8;" edge="1" parent="1" source="D1A6Ejf6f3UkuHJyZgIm-15" target="D1A6Ejf6f3UkuHJyZgIm-17">
          <mxGeometry relative="1" as="geometry" />
        </mxCell>
        <mxCell id="D1A6Ejf6f3UkuHJyZgIm-20" value="" style="edgeStyle=none;curved=1;rounded=0;orthogonalLoop=1;jettySize=auto;html=1;fontSize=12;startSize=8;endSize=8;" edge="1" parent="1" source="D1A6Ejf6f3UkuHJyZgIm-15" target="D1A6Ejf6f3UkuHJyZgIm-17">
          <mxGeometry relative="1" as="geometry" />
        </mxCell>
        <mxCell id="D1A6Ejf6f3UkuHJyZgIm-46" value="yes" style="edgeLabel;html=1;align=center;verticalAlign=middle;resizable=0;points=[];fontSize=12;" vertex="1" connectable="0" parent="D1A6Ejf6f3UkuHJyZgIm-20">
          <mxGeometry x="-0.2419" y="-2" relative="1" as="geometry">
            <mxPoint as="offset" />
          </mxGeometry>
        </mxCell>
        <mxCell id="D1A6Ejf6f3UkuHJyZgIm-23" value="" style="edgeStyle=none;curved=1;rounded=0;orthogonalLoop=1;jettySize=auto;html=1;fontSize=12;startSize=8;endSize=8;" edge="1" parent="1" source="D1A6Ejf6f3UkuHJyZgIm-15" target="D1A6Ejf6f3UkuHJyZgIm-22">
          <mxGeometry relative="1" as="geometry" />
        </mxCell>
        <mxCell id="D1A6Ejf6f3UkuHJyZgIm-47" value="no" style="edgeLabel;html=1;align=center;verticalAlign=middle;resizable=0;points=[];fontSize=12;" vertex="1" connectable="0" parent="D1A6Ejf6f3UkuHJyZgIm-23">
          <mxGeometry x="-0.2015" relative="1" as="geometry">
            <mxPoint as="offset" />
          </mxGeometry>
        </mxCell>
        <mxCell id="D1A6Ejf6f3UkuHJyZgIm-15" value="if age&amp;nbsp;&lt;div&gt;&amp;lt; 7&lt;/div&gt;" style="rhombus;whiteSpace=wrap;html=1;" vertex="1" parent="1">
          <mxGeometry x="-156" y="-277" width="80" height="80" as="geometry" />
        </mxCell>
        <mxCell id="D1A6Ejf6f3UkuHJyZgIm-60" value="" style="edgeStyle=none;curved=1;rounded=0;orthogonalLoop=1;jettySize=auto;html=1;fontSize=12;startSize=8;endSize=8;entryX=0.75;entryY=0;entryDx=0;entryDy=0;" edge="1" parent="1" source="D1A6Ejf6f3UkuHJyZgIm-17" target="D1A6Ejf6f3UkuHJyZgIm-58">
          <mxGeometry relative="1" as="geometry">
            <mxPoint x="-196" y="5" as="targetPoint" />
          </mxGeometry>
        </mxCell>
        <mxCell id="D1A6Ejf6f3UkuHJyZgIm-17" value="recommend tricycle" style="rounded=1;whiteSpace=wrap;html=1;" vertex="1" parent="1">
          <mxGeometry x="-256" y="-175" width="120" height="60" as="geometry" />
        </mxCell>
        <mxCell id="D1A6Ejf6f3UkuHJyZgIm-62" value="" style="edgeStyle=none;curved=1;rounded=0;orthogonalLoop=1;jettySize=auto;html=1;fontSize=12;startSize=8;endSize=8;entryX=1;entryY=0;entryDx=0;entryDy=0;" edge="1" parent="1" source="D1A6Ejf6f3UkuHJyZgIm-22" target="D1A6Ejf6f3UkuHJyZgIm-58">
          <mxGeometry relative="1" as="geometry">
            <mxPoint x="-38.00000000000023" y="5" as="targetPoint" />
          </mxGeometry>
        </mxCell>
        <mxCell id="D1A6Ejf6f3UkuHJyZgIm-22" value="recommend bicycle" style="rounded=1;whiteSpace=wrap;html=1;" vertex="1" parent="1">
          <mxGeometry x="-98" y="-175" width="120" height="60" as="geometry" />
        </mxCell>
        <mxCell id="D1A6Ejf6f3UkuHJyZgIm-34" value="" style="edgeStyle=none;curved=1;rounded=0;orthogonalLoop=1;jettySize=auto;html=1;fontSize=12;startSize=8;endSize=8;" edge="1" parent="1" source="D1A6Ejf6f3UkuHJyZgIm-38" target="D1A6Ejf6f3UkuHJyZgIm-39">
          <mxGeometry relative="1" as="geometry" />
        </mxCell>
        <mxCell id="D1A6Ejf6f3UkuHJyZgIm-35" value="" style="edgeStyle=none;curved=1;rounded=0;orthogonalLoop=1;jettySize=auto;html=1;fontSize=12;startSize=8;endSize=8;" edge="1" parent="1" source="D1A6Ejf6f3UkuHJyZgIm-38" target="D1A6Ejf6f3UkuHJyZgIm-39">
          <mxGeometry relative="1" as="geometry" />
        </mxCell>
        <mxCell id="D1A6Ejf6f3UkuHJyZgIm-36" value="" style="edgeStyle=none;curved=1;rounded=0;orthogonalLoop=1;jettySize=auto;html=1;fontSize=12;startSize=8;endSize=8;" edge="1" parent="1" source="D1A6Ejf6f3UkuHJyZgIm-38" target="D1A6Ejf6f3UkuHJyZgIm-39">
          <mxGeometry relative="1" as="geometry" />
        </mxCell>
        <mxCell id="D1A6Ejf6f3UkuHJyZgIm-44" value="yes" style="edgeLabel;html=1;align=center;verticalAlign=middle;resizable=0;points=[];fontSize=12;" vertex="1" connectable="0" parent="D1A6Ejf6f3UkuHJyZgIm-36">
          <mxGeometry x="-0.3091" y="-6" relative="1" as="geometry">
            <mxPoint as="offset" />
          </mxGeometry>
        </mxCell>
        <mxCell id="D1A6Ejf6f3UkuHJyZgIm-37" value="" style="edgeStyle=none;curved=1;rounded=0;orthogonalLoop=1;jettySize=auto;html=1;fontSize=12;startSize=8;endSize=8;" edge="1" parent="1" source="D1A6Ejf6f3UkuHJyZgIm-38">
          <mxGeometry relative="1" as="geometry">
            <mxPoint x="-462.00478260869573" y="-175" as="targetPoint" />
          </mxGeometry>
        </mxCell>
        <mxCell id="D1A6Ejf6f3UkuHJyZgIm-45" value="no" style="edgeLabel;html=1;align=center;verticalAlign=middle;resizable=0;points=[];fontSize=12;" vertex="1" connectable="0" parent="D1A6Ejf6f3UkuHJyZgIm-37">
          <mxGeometry x="-0.4199" y="3" relative="1" as="geometry">
            <mxPoint as="offset" />
          </mxGeometry>
        </mxCell>
        <mxCell id="D1A6Ejf6f3UkuHJyZgIm-38" value="if age&amp;nbsp;&lt;div&gt;&amp;lt; 70&lt;/div&gt;" style="rhombus;whiteSpace=wrap;html=1;" vertex="1" parent="1">
          <mxGeometry x="-554.57" y="-277" width="80" height="80" as="geometry" />
        </mxCell>
        <mxCell id="D1A6Ejf6f3UkuHJyZgIm-53" value="" style="edgeStyle=none;curved=1;rounded=0;orthogonalLoop=1;jettySize=auto;html=1;fontSize=12;startSize=8;endSize=8;entryX=0;entryY=0;entryDx=0;entryDy=0;" edge="1" parent="1" source="D1A6Ejf6f3UkuHJyZgIm-39" target="D1A6Ejf6f3UkuHJyZgIm-58">
          <mxGeometry relative="1" as="geometry">
            <mxPoint x="-594.5700000000002" y="5" as="targetPoint" />
          </mxGeometry>
        </mxCell>
        <mxCell id="D1A6Ejf6f3UkuHJyZgIm-39" value="recommend car" style="rounded=1;whiteSpace=wrap;html=1;" vertex="1" parent="1">
          <mxGeometry x="-654.57" y="-175" width="120" height="60" as="geometry" />
        </mxCell>
        <mxCell id="D1A6Ejf6f3UkuHJyZgIm-57" value="" style="edgeStyle=none;curved=1;rounded=0;orthogonalLoop=1;jettySize=auto;html=1;fontSize=12;startSize=8;endSize=8;entryX=0.25;entryY=0;entryDx=0;entryDy=0;" edge="1" parent="1" source="D1A6Ejf6f3UkuHJyZgIm-40" target="D1A6Ejf6f3UkuHJyZgIm-58">
          <mxGeometry relative="1" as="geometry">
            <mxPoint x="-438" y="5" as="targetPoint" />
          </mxGeometry>
        </mxCell>
        <mxCell id="D1A6Ejf6f3UkuHJyZgIm-40" value="recommend mobiliy scooter" style="rounded=1;whiteSpace=wrap;html=1;" vertex="1" parent="1">
          <mxGeometry x="-498" y="-175" width="120" height="60" as="geometry" />
        </mxCell>
        <mxCell id="D1A6Ejf6f3UkuHJyZgIm-41" value="" style="edgeStyle=none;curved=1;rounded=0;orthogonalLoop=1;jettySize=auto;html=1;fontSize=12;startSize=8;endSize=8;exitX=0;exitY=0.5;exitDx=0;exitDy=0;entryX=1;entryY=0.5;entryDx=0;entryDy=0;" edge="1" parent="1" source="D1A6Ejf6f3UkuHJyZgIm-11" target="D1A6Ejf6f3UkuHJyZgIm-38">
          <mxGeometry relative="1" as="geometry">
            <mxPoint x="-476" y="-237.45" as="sourcePoint" />
            <mxPoint x="-441" y="-203" as="targetPoint" />
          </mxGeometry>
        </mxCell>
        <mxCell id="D1A6Ejf6f3UkuHJyZgIm-43" value="yes" style="edgeLabel;html=1;align=center;verticalAlign=middle;resizable=0;points=[];fontSize=12;" vertex="1" connectable="0" parent="D1A6Ejf6f3UkuHJyZgIm-41">
          <mxGeometry x="-0.0477" y="3" relative="1" as="geometry">
            <mxPoint as="offset" />
          </mxGeometry>
        </mxCell>
        <mxCell id="D1A6Ejf6f3UkuHJyZgIm-58" value="end" style="rounded=0;whiteSpace=wrap;html=1;" vertex="1" parent="1">
          <mxGeometry x="-376" y="2" width="120" height="60" as="geometry" />
        </mxCell>
      </root>
    </mxGraphModel>
  </diagram>
</mxfile>
